G04 #@! TF.FileFunction,Copper,L1,Top,Signal*
%FSLAX46Y46*%
G04 Gerber Fmt 4.6, Leading zero omitted, Abs format (unit mm)*
G04 Created by KiCad (PCBNEW 4.0.5) date 08/12/17 16:39:25*
%MOMM*%
%LPD*%
G01*
G04 APERTURE LIST*
%ADD10C,0.100000*%
%ADD11R,1.700000X1.700000*%
%ADD12O,1.700000X1.700000*%
%ADD13O,1.998980X1.998980*%
%ADD14R,1.998980X1.998980*%
%ADD15R,1.300000X1.500000*%
%ADD16C,0.600000*%
%ADD17C,0.250000*%
%ADD18C,0.254000*%
G04 APERTURE END LIST*
D10*
D11*
X120650000Y-88900000D03*
D12*
X120650000Y-91440000D03*
D13*
X116840000Y-115570000D03*
D14*
X114300000Y-115570000D03*
D11*
X144780000Y-116840000D03*
D12*
X144780000Y-114300000D03*
X144780000Y-111760000D03*
X144780000Y-109220000D03*
X144780000Y-106680000D03*
X144780000Y-104140000D03*
X144780000Y-101600000D03*
X144780000Y-99060000D03*
X144780000Y-96520000D03*
X144780000Y-93980000D03*
X144780000Y-91440000D03*
X144780000Y-88900000D03*
X144780000Y-86360000D03*
X144780000Y-83820000D03*
X144780000Y-81280000D03*
D11*
X129540000Y-81280000D03*
D12*
X129540000Y-83820000D03*
X129540000Y-86360000D03*
X129540000Y-88900000D03*
X129540000Y-91440000D03*
X129540000Y-93980000D03*
X129540000Y-96520000D03*
X129540000Y-99060000D03*
X129540000Y-101600000D03*
X129540000Y-104140000D03*
X129540000Y-106680000D03*
X129540000Y-109220000D03*
X129540000Y-111760000D03*
X129540000Y-114300000D03*
X129540000Y-116840000D03*
D11*
X138430000Y-121500000D03*
D12*
X135890000Y-121500000D03*
X133350000Y-121500000D03*
X130810000Y-121500000D03*
X128270000Y-121500000D03*
X125730000Y-121500000D03*
X123190000Y-121500000D03*
X120650000Y-121500000D03*
D11*
X115570000Y-88900000D03*
D12*
X115570000Y-91440000D03*
D11*
X109220000Y-109220000D03*
D12*
X109220000Y-106680000D03*
X109220000Y-104140000D03*
X109220000Y-101600000D03*
X109220000Y-99060000D03*
D15*
X125730000Y-94060000D03*
X125730000Y-91360000D03*
X125730000Y-87710000D03*
X125730000Y-85010000D03*
X138430000Y-118190000D03*
X138430000Y-115490000D03*
X133350000Y-118190000D03*
X133350000Y-115490000D03*
X123190000Y-118190000D03*
X123190000Y-115490000D03*
X140970000Y-118190000D03*
X140970000Y-115490000D03*
X135890000Y-118190000D03*
X135890000Y-115490000D03*
X125730000Y-118190000D03*
X125730000Y-115490000D03*
D11*
X121650000Y-104140000D03*
X135890000Y-81700000D03*
D12*
X138430000Y-81700000D03*
D11*
X120650000Y-81700000D03*
D12*
X123190000Y-81700000D03*
X125730000Y-81700000D03*
D11*
X110490000Y-88900000D03*
D12*
X110490000Y-91440000D03*
D16*
X125730000Y-96520000D03*
X142240000Y-105410000D03*
X140970000Y-106680000D03*
X139700000Y-107950000D03*
X139700000Y-109220000D03*
X132080000Y-95250000D03*
D17*
X125730000Y-96520000D02*
X125730000Y-94060000D01*
X125730000Y-94060000D02*
X125730000Y-93980000D01*
X125730000Y-93980000D02*
X120650000Y-88900000D01*
X125730000Y-115490000D02*
X125730000Y-114300000D01*
X139700000Y-104140000D02*
X144780000Y-104140000D01*
X130810000Y-113030000D02*
X139700000Y-104140000D01*
X127000000Y-113030000D02*
X130810000Y-113030000D01*
X125730000Y-114300000D02*
X127000000Y-113030000D01*
X140970000Y-101600000D02*
X144780000Y-101600000D01*
X132080000Y-110490000D02*
X140970000Y-101600000D01*
X128270000Y-110490000D02*
X132080000Y-110490000D01*
X123270000Y-115490000D02*
X128270000Y-110490000D01*
X123190000Y-115490000D02*
X123270000Y-115490000D01*
X133350000Y-115490000D02*
X133350000Y-111760000D01*
X139700000Y-105410000D02*
X142240000Y-105410000D01*
X133350000Y-111760000D02*
X139700000Y-105410000D01*
X135890000Y-115490000D02*
X135890000Y-110490000D01*
X139700000Y-106680000D02*
X140970000Y-106680000D01*
X135890000Y-110490000D02*
X139700000Y-106680000D01*
X138430000Y-115490000D02*
X138430000Y-109220000D01*
X138430000Y-109220000D02*
X139700000Y-107950000D01*
X140970000Y-115490000D02*
X140970000Y-110490000D01*
X140970000Y-110490000D02*
X139700000Y-109220000D01*
X132080000Y-86360000D02*
X129540000Y-83820000D01*
X132080000Y-95250000D02*
X132080000Y-86360000D01*
X125730000Y-87710000D02*
X125730000Y-91360000D01*
X125730000Y-87710000D02*
X125810000Y-87710000D01*
X125810000Y-87710000D02*
X127000000Y-88900000D01*
X127000000Y-88900000D02*
X129540000Y-88900000D01*
X109220000Y-101600000D02*
X118110000Y-101600000D01*
X125730000Y-101600000D02*
X129540000Y-101600000D01*
X124460000Y-100330000D02*
X125730000Y-101600000D01*
X119380000Y-100330000D02*
X124460000Y-100330000D01*
X118110000Y-101600000D02*
X119380000Y-100330000D01*
X109220000Y-104140000D02*
X118110000Y-104140000D01*
X125730000Y-104140000D02*
X129540000Y-104140000D01*
X123190000Y-101600000D02*
X125730000Y-104140000D01*
X120650000Y-101600000D02*
X123190000Y-101600000D01*
X118110000Y-104140000D02*
X120650000Y-101600000D01*
X109220000Y-106680000D02*
X129540000Y-106680000D01*
X109220000Y-109220000D02*
X129540000Y-109220000D01*
X140970000Y-118190000D02*
X140970000Y-118960000D01*
X140970000Y-118960000D02*
X138430000Y-121500000D01*
X138430000Y-118190000D02*
X138430000Y-118960000D01*
X138430000Y-118960000D02*
X135890000Y-121500000D01*
X135890000Y-118190000D02*
X135890000Y-118960000D01*
X135890000Y-118960000D02*
X133350000Y-121500000D01*
X133350000Y-118190000D02*
X133350000Y-118960000D01*
X133350000Y-118960000D02*
X130810000Y-121500000D01*
X125730000Y-118190000D02*
X125730000Y-118960000D01*
X125730000Y-118960000D02*
X128270000Y-121500000D01*
X123190000Y-118190000D02*
X123190000Y-118960000D01*
X123190000Y-118960000D02*
X125730000Y-121500000D01*
D18*
G36*
X151690000Y-123750000D02*
X107390000Y-123750000D01*
X107390000Y-121893109D01*
X107654657Y-121893109D01*
X107956218Y-122622943D01*
X108514120Y-123181819D01*
X109243427Y-123484654D01*
X110033109Y-123485343D01*
X110762943Y-123183782D01*
X111321819Y-122625880D01*
X111624654Y-121896573D01*
X111625343Y-121106891D01*
X111323782Y-120377057D01*
X110765880Y-119818181D01*
X110036573Y-119515346D01*
X109246891Y-119514657D01*
X108517057Y-119816218D01*
X107958181Y-120374120D01*
X107655346Y-121103427D01*
X107654657Y-121893109D01*
X107390000Y-121893109D01*
X107390000Y-114570510D01*
X112653070Y-114570510D01*
X112653070Y-116569490D01*
X112697348Y-116804807D01*
X112836420Y-117020931D01*
X113048620Y-117165921D01*
X113300510Y-117216930D01*
X113588095Y-117216930D01*
X113338355Y-117466235D01*
X113165197Y-117883244D01*
X113164803Y-118334775D01*
X113337233Y-118752086D01*
X113656235Y-119071645D01*
X114073244Y-119244803D01*
X114524775Y-119245197D01*
X114942086Y-119072767D01*
X115261645Y-118753765D01*
X115434803Y-118336756D01*
X115435197Y-117885225D01*
X115262767Y-117467914D01*
X115012220Y-117216930D01*
X115299490Y-117216930D01*
X115534807Y-117172652D01*
X115750931Y-117033580D01*
X115861094Y-116872351D01*
X115880274Y-116893068D01*
X116321614Y-117096121D01*
X116197914Y-117147233D01*
X115878355Y-117466235D01*
X115705197Y-117883244D01*
X115704803Y-118334775D01*
X115877233Y-118752086D01*
X116196235Y-119071645D01*
X116613244Y-119244803D01*
X117064775Y-119245197D01*
X117482086Y-119072767D01*
X117801645Y-118753765D01*
X117974803Y-118336756D01*
X117975197Y-117885225D01*
X117802767Y-117467914D01*
X117483765Y-117148355D01*
X117358190Y-117096211D01*
X117799726Y-116893068D01*
X118232987Y-116425084D01*
X118429619Y-115950354D01*
X118310265Y-115697000D01*
X116967000Y-115697000D01*
X116967000Y-115717000D01*
X116713000Y-115717000D01*
X116713000Y-115697000D01*
X116693000Y-115697000D01*
X116693000Y-115443000D01*
X116713000Y-115443000D01*
X116713000Y-114099193D01*
X116967000Y-114099193D01*
X116967000Y-115443000D01*
X118310265Y-115443000D01*
X118429619Y-115189646D01*
X118232987Y-114714916D01*
X117799726Y-114246932D01*
X117220355Y-113980373D01*
X116967000Y-114099193D01*
X116713000Y-114099193D01*
X116459645Y-113980373D01*
X115880274Y-114246932D01*
X115859970Y-114268863D01*
X115763580Y-114119069D01*
X115551380Y-113974079D01*
X115299490Y-113923070D01*
X113300510Y-113923070D01*
X113065193Y-113967348D01*
X112849069Y-114106420D01*
X112704079Y-114318620D01*
X112653070Y-114570510D01*
X107390000Y-114570510D01*
X107390000Y-101600000D01*
X107705907Y-101600000D01*
X107818946Y-102168285D01*
X108140853Y-102650054D01*
X108470026Y-102870000D01*
X108140853Y-103089946D01*
X107818946Y-103571715D01*
X107705907Y-104140000D01*
X107818946Y-104708285D01*
X108140853Y-105190054D01*
X108470026Y-105410000D01*
X108140853Y-105629946D01*
X107818946Y-106111715D01*
X107705907Y-106680000D01*
X107818946Y-107248285D01*
X108140853Y-107730054D01*
X108182452Y-107757850D01*
X108134683Y-107766838D01*
X107918559Y-107905910D01*
X107773569Y-108118110D01*
X107722560Y-108370000D01*
X107722560Y-110070000D01*
X107766838Y-110305317D01*
X107905910Y-110521441D01*
X108118110Y-110666431D01*
X108370000Y-110717440D01*
X110070000Y-110717440D01*
X110305317Y-110673162D01*
X110521441Y-110534090D01*
X110666431Y-110321890D01*
X110717440Y-110070000D01*
X110717440Y-109980000D01*
X127705198Y-109980000D01*
X123592638Y-114092560D01*
X122540000Y-114092560D01*
X122304683Y-114136838D01*
X122088559Y-114275910D01*
X121943569Y-114488110D01*
X121892560Y-114740000D01*
X121892560Y-116240000D01*
X121936838Y-116475317D01*
X122075910Y-116691441D01*
X122288110Y-116836431D01*
X122301197Y-116839081D01*
X122088559Y-116975910D01*
X121943569Y-117188110D01*
X121892560Y-117440000D01*
X121892560Y-118940000D01*
X121936838Y-119175317D01*
X122075910Y-119391441D01*
X122288110Y-119536431D01*
X122540000Y-119587440D01*
X122742638Y-119587440D01*
X123170198Y-120015000D01*
X123062998Y-120015000D01*
X123062998Y-120179844D01*
X122833110Y-120058524D01*
X122423076Y-120228355D01*
X121994817Y-120618642D01*
X121927702Y-120761553D01*
X121700054Y-120420853D01*
X121218285Y-120098946D01*
X120650000Y-119985907D01*
X120081715Y-120098946D01*
X119599946Y-120420853D01*
X119278039Y-120902622D01*
X119165000Y-121470907D01*
X119165000Y-121529093D01*
X119278039Y-122097378D01*
X119599946Y-122579147D01*
X120081715Y-122901054D01*
X120650000Y-123014093D01*
X121218285Y-122901054D01*
X121700054Y-122579147D01*
X121927702Y-122238447D01*
X121994817Y-122381358D01*
X122423076Y-122771645D01*
X122833110Y-122941476D01*
X123063000Y-122820155D01*
X123063000Y-121627000D01*
X123043000Y-121627000D01*
X123043000Y-121373000D01*
X123063000Y-121373000D01*
X123063000Y-121353000D01*
X123317000Y-121353000D01*
X123317000Y-121373000D01*
X123337000Y-121373000D01*
X123337000Y-121627000D01*
X123317000Y-121627000D01*
X123317000Y-122820155D01*
X123546890Y-122941476D01*
X123956924Y-122771645D01*
X124385183Y-122381358D01*
X124452298Y-122238447D01*
X124679946Y-122579147D01*
X125161715Y-122901054D01*
X125730000Y-123014093D01*
X126298285Y-122901054D01*
X126780054Y-122579147D01*
X127000000Y-122249974D01*
X127219946Y-122579147D01*
X127701715Y-122901054D01*
X128270000Y-123014093D01*
X128838285Y-122901054D01*
X129320054Y-122579147D01*
X129540000Y-122249974D01*
X129759946Y-122579147D01*
X130241715Y-122901054D01*
X130810000Y-123014093D01*
X131378285Y-122901054D01*
X131860054Y-122579147D01*
X132080000Y-122249974D01*
X132299946Y-122579147D01*
X132781715Y-122901054D01*
X133350000Y-123014093D01*
X133918285Y-122901054D01*
X134400054Y-122579147D01*
X134620000Y-122249974D01*
X134839946Y-122579147D01*
X135321715Y-122901054D01*
X135890000Y-123014093D01*
X136458285Y-122901054D01*
X136940054Y-122579147D01*
X136967850Y-122537548D01*
X136976838Y-122585317D01*
X137115910Y-122801441D01*
X137328110Y-122946431D01*
X137580000Y-122997440D01*
X139280000Y-122997440D01*
X139515317Y-122953162D01*
X139731441Y-122814090D01*
X139876431Y-122601890D01*
X139927440Y-122350000D01*
X139927440Y-121893109D01*
X147454657Y-121893109D01*
X147756218Y-122622943D01*
X148314120Y-123181819D01*
X149043427Y-123484654D01*
X149833109Y-123485343D01*
X150562943Y-123183782D01*
X151121819Y-122625880D01*
X151424654Y-121896573D01*
X151425343Y-121106891D01*
X151123782Y-120377057D01*
X150565880Y-119818181D01*
X149836573Y-119515346D01*
X149046891Y-119514657D01*
X148317057Y-119816218D01*
X147758181Y-120374120D01*
X147455346Y-121103427D01*
X147454657Y-121893109D01*
X139927440Y-121893109D01*
X139927440Y-121077362D01*
X141417362Y-119587440D01*
X141620000Y-119587440D01*
X141855317Y-119543162D01*
X142071441Y-119404090D01*
X142216431Y-119191890D01*
X142267440Y-118940000D01*
X142267440Y-117440000D01*
X142223162Y-117204683D01*
X142084090Y-116988559D01*
X141871890Y-116843569D01*
X141858803Y-116840919D01*
X142071441Y-116704090D01*
X142216431Y-116491890D01*
X142267440Y-116240000D01*
X142267440Y-114740000D01*
X142223162Y-114504683D01*
X142084090Y-114288559D01*
X141871890Y-114143569D01*
X141730000Y-114114836D01*
X141730000Y-111760000D01*
X143265907Y-111760000D01*
X143378946Y-112328285D01*
X143700853Y-112810054D01*
X144030026Y-113030000D01*
X143700853Y-113249946D01*
X143378946Y-113731715D01*
X143265907Y-114300000D01*
X143378946Y-114868285D01*
X143700853Y-115350054D01*
X143742452Y-115377850D01*
X143694683Y-115386838D01*
X143478559Y-115525910D01*
X143333569Y-115738110D01*
X143282560Y-115990000D01*
X143282560Y-117690000D01*
X143326838Y-117925317D01*
X143465910Y-118141441D01*
X143678110Y-118286431D01*
X143930000Y-118337440D01*
X145630000Y-118337440D01*
X145865317Y-118293162D01*
X146081441Y-118154090D01*
X146226431Y-117941890D01*
X146277440Y-117690000D01*
X146277440Y-115990000D01*
X146233162Y-115754683D01*
X146094090Y-115538559D01*
X145881890Y-115393569D01*
X145814459Y-115379914D01*
X145859147Y-115350054D01*
X146181054Y-114868285D01*
X146294093Y-114300000D01*
X146181054Y-113731715D01*
X145859147Y-113249946D01*
X145529974Y-113030000D01*
X145859147Y-112810054D01*
X146181054Y-112328285D01*
X146294093Y-111760000D01*
X146181054Y-111191715D01*
X145859147Y-110709946D01*
X145518447Y-110482298D01*
X145661358Y-110415183D01*
X146051645Y-109986924D01*
X146221476Y-109576890D01*
X146100155Y-109347000D01*
X144907000Y-109347000D01*
X144907000Y-109367000D01*
X144653000Y-109367000D01*
X144653000Y-109347000D01*
X143459845Y-109347000D01*
X143338524Y-109576890D01*
X143508355Y-109986924D01*
X143898642Y-110415183D01*
X144041553Y-110482298D01*
X143700853Y-110709946D01*
X143378946Y-111191715D01*
X143265907Y-111760000D01*
X141730000Y-111760000D01*
X141730000Y-110490000D01*
X141693264Y-110305317D01*
X141672148Y-110199160D01*
X141507401Y-109952599D01*
X140635122Y-109080320D01*
X140635162Y-109034833D01*
X140493117Y-108691057D01*
X140387290Y-108585046D01*
X140492192Y-108480327D01*
X140634838Y-108136799D01*
X140635162Y-107764833D01*
X140529690Y-107509570D01*
X140783201Y-107614838D01*
X141155167Y-107615162D01*
X141498943Y-107473117D01*
X141762192Y-107210327D01*
X141904838Y-106866799D01*
X141905162Y-106494833D01*
X141799690Y-106239570D01*
X142053201Y-106344838D01*
X142425167Y-106345162D01*
X142768943Y-106203117D01*
X143032192Y-105940327D01*
X143174838Y-105596799D01*
X143175162Y-105224833D01*
X143040944Y-104900000D01*
X143507046Y-104900000D01*
X143700853Y-105190054D01*
X144030026Y-105410000D01*
X143700853Y-105629946D01*
X143378946Y-106111715D01*
X143265907Y-106680000D01*
X143378946Y-107248285D01*
X143700853Y-107730054D01*
X144041553Y-107957702D01*
X143898642Y-108024817D01*
X143508355Y-108453076D01*
X143338524Y-108863110D01*
X143459845Y-109093000D01*
X144653000Y-109093000D01*
X144653000Y-109073000D01*
X144907000Y-109073000D01*
X144907000Y-109093000D01*
X146100155Y-109093000D01*
X146221476Y-108863110D01*
X146051645Y-108453076D01*
X145661358Y-108024817D01*
X145518447Y-107957702D01*
X145859147Y-107730054D01*
X146181054Y-107248285D01*
X146294093Y-106680000D01*
X146181054Y-106111715D01*
X145859147Y-105629946D01*
X145529974Y-105410000D01*
X145859147Y-105190054D01*
X146181054Y-104708285D01*
X146294093Y-104140000D01*
X146181054Y-103571715D01*
X145859147Y-103089946D01*
X145529974Y-102870000D01*
X145859147Y-102650054D01*
X146181054Y-102168285D01*
X146294093Y-101600000D01*
X146181054Y-101031715D01*
X145859147Y-100549946D01*
X145529974Y-100330000D01*
X145859147Y-100110054D01*
X146181054Y-99628285D01*
X146294093Y-99060000D01*
X146181054Y-98491715D01*
X145859147Y-98009946D01*
X145529974Y-97790000D01*
X145859147Y-97570054D01*
X146181054Y-97088285D01*
X146294093Y-96520000D01*
X146181054Y-95951715D01*
X145859147Y-95469946D01*
X145529974Y-95250000D01*
X145859147Y-95030054D01*
X146181054Y-94548285D01*
X146294093Y-93980000D01*
X146181054Y-93411715D01*
X145859147Y-92929946D01*
X145529974Y-92710000D01*
X145859147Y-92490054D01*
X146181054Y-92008285D01*
X146294093Y-91440000D01*
X146181054Y-90871715D01*
X145859147Y-90389946D01*
X145529974Y-90170000D01*
X145859147Y-89950054D01*
X146181054Y-89468285D01*
X146294093Y-88900000D01*
X146181054Y-88331715D01*
X145859147Y-87849946D01*
X145529974Y-87630000D01*
X145859147Y-87410054D01*
X146181054Y-86928285D01*
X146294093Y-86360000D01*
X146181054Y-85791715D01*
X145859147Y-85309946D01*
X145529974Y-85090000D01*
X145859147Y-84870054D01*
X146181054Y-84388285D01*
X146294093Y-83820000D01*
X146181054Y-83251715D01*
X145859147Y-82769946D01*
X145529974Y-82550000D01*
X145859147Y-82330054D01*
X146017468Y-82093109D01*
X147454657Y-82093109D01*
X147756218Y-82822943D01*
X148314120Y-83381819D01*
X149043427Y-83684654D01*
X149833109Y-83685343D01*
X150562943Y-83383782D01*
X151121819Y-82825880D01*
X151424654Y-82096573D01*
X151425343Y-81306891D01*
X151123782Y-80577057D01*
X150565880Y-80018181D01*
X149836573Y-79715346D01*
X149046891Y-79714657D01*
X148317057Y-80016218D01*
X147758181Y-80574120D01*
X147455346Y-81303427D01*
X147454657Y-82093109D01*
X146017468Y-82093109D01*
X146181054Y-81848285D01*
X146294093Y-81280000D01*
X146181054Y-80711715D01*
X145859147Y-80229946D01*
X145377378Y-79908039D01*
X144809093Y-79795000D01*
X144750907Y-79795000D01*
X144182622Y-79908039D01*
X143700853Y-80229946D01*
X143378946Y-80711715D01*
X143265907Y-81280000D01*
X143378946Y-81848285D01*
X143700853Y-82330054D01*
X144030026Y-82550000D01*
X143700853Y-82769946D01*
X143378946Y-83251715D01*
X143265907Y-83820000D01*
X143378946Y-84388285D01*
X143700853Y-84870054D01*
X144030026Y-85090000D01*
X143700853Y-85309946D01*
X143378946Y-85791715D01*
X143265907Y-86360000D01*
X143378946Y-86928285D01*
X143700853Y-87410054D01*
X144030026Y-87630000D01*
X143700853Y-87849946D01*
X143378946Y-88331715D01*
X143265907Y-88900000D01*
X143378946Y-89468285D01*
X143700853Y-89950054D01*
X144030026Y-90170000D01*
X143700853Y-90389946D01*
X143378946Y-90871715D01*
X143265907Y-91440000D01*
X143378946Y-92008285D01*
X143700853Y-92490054D01*
X144030026Y-92710000D01*
X143700853Y-92929946D01*
X143378946Y-93411715D01*
X143265907Y-93980000D01*
X143378946Y-94548285D01*
X143700853Y-95030054D01*
X144030026Y-95250000D01*
X143700853Y-95469946D01*
X143378946Y-95951715D01*
X143265907Y-96520000D01*
X143378946Y-97088285D01*
X143700853Y-97570054D01*
X144030026Y-97790000D01*
X143700853Y-98009946D01*
X143378946Y-98491715D01*
X143265907Y-99060000D01*
X143378946Y-99628285D01*
X143700853Y-100110054D01*
X144030026Y-100330000D01*
X143700853Y-100549946D01*
X143507046Y-100840000D01*
X140970000Y-100840000D01*
X140679161Y-100897852D01*
X140432599Y-101062599D01*
X131765198Y-109730000D01*
X130952648Y-109730000D01*
X131054093Y-109220000D01*
X130941054Y-108651715D01*
X130619147Y-108169946D01*
X130289974Y-107950000D01*
X130619147Y-107730054D01*
X130941054Y-107248285D01*
X131054093Y-106680000D01*
X130941054Y-106111715D01*
X130619147Y-105629946D01*
X130289974Y-105410000D01*
X130619147Y-105190054D01*
X130941054Y-104708285D01*
X131054093Y-104140000D01*
X130941054Y-103571715D01*
X130619147Y-103089946D01*
X130289974Y-102870000D01*
X130619147Y-102650054D01*
X130941054Y-102168285D01*
X131054093Y-101600000D01*
X130941054Y-101031715D01*
X130619147Y-100549946D01*
X130289974Y-100330000D01*
X130619147Y-100110054D01*
X130941054Y-99628285D01*
X131054093Y-99060000D01*
X130941054Y-98491715D01*
X130619147Y-98009946D01*
X130289974Y-97790000D01*
X130619147Y-97570054D01*
X130941054Y-97088285D01*
X131054093Y-96520000D01*
X130941054Y-95951715D01*
X130619147Y-95469946D01*
X130289974Y-95250000D01*
X130619147Y-95030054D01*
X130941054Y-94548285D01*
X131054093Y-93980000D01*
X130941054Y-93411715D01*
X130619147Y-92929946D01*
X130289974Y-92710000D01*
X130619147Y-92490054D01*
X130941054Y-92008285D01*
X131054093Y-91440000D01*
X130941054Y-90871715D01*
X130619147Y-90389946D01*
X130289974Y-90170000D01*
X130619147Y-89950054D01*
X130941054Y-89468285D01*
X131054093Y-88900000D01*
X130941054Y-88331715D01*
X130619147Y-87849946D01*
X130289974Y-87630000D01*
X130619147Y-87410054D01*
X130941054Y-86928285D01*
X131045981Y-86400783D01*
X131320000Y-86674802D01*
X131320000Y-94687537D01*
X131287808Y-94719673D01*
X131145162Y-95063201D01*
X131144838Y-95435167D01*
X131286883Y-95778943D01*
X131549673Y-96042192D01*
X131893201Y-96184838D01*
X132265167Y-96185162D01*
X132608943Y-96043117D01*
X132872192Y-95780327D01*
X133014838Y-95436799D01*
X133015162Y-95064833D01*
X132873117Y-94721057D01*
X132840000Y-94687882D01*
X132840000Y-86360000D01*
X132782148Y-86069161D01*
X132782148Y-86069160D01*
X132617401Y-85822599D01*
X130981210Y-84186408D01*
X131054093Y-83820000D01*
X130941054Y-83251715D01*
X130619147Y-82769946D01*
X130577548Y-82742150D01*
X130625317Y-82733162D01*
X130841441Y-82594090D01*
X130986431Y-82381890D01*
X131037440Y-82130000D01*
X131037440Y-80850000D01*
X134392560Y-80850000D01*
X134392560Y-82550000D01*
X134436838Y-82785317D01*
X134575910Y-83001441D01*
X134788110Y-83146431D01*
X135040000Y-83197440D01*
X136740000Y-83197440D01*
X136975317Y-83153162D01*
X137191441Y-83014090D01*
X137336431Y-82801890D01*
X137350086Y-82734459D01*
X137379946Y-82779147D01*
X137861715Y-83101054D01*
X138430000Y-83214093D01*
X138998285Y-83101054D01*
X139480054Y-82779147D01*
X139801961Y-82297378D01*
X139915000Y-81729093D01*
X139915000Y-81670907D01*
X139801961Y-81102622D01*
X139480054Y-80620853D01*
X138998285Y-80298946D01*
X138430000Y-80185907D01*
X137861715Y-80298946D01*
X137379946Y-80620853D01*
X137352150Y-80662452D01*
X137343162Y-80614683D01*
X137204090Y-80398559D01*
X136991890Y-80253569D01*
X136740000Y-80202560D01*
X135040000Y-80202560D01*
X134804683Y-80246838D01*
X134588559Y-80385910D01*
X134443569Y-80598110D01*
X134392560Y-80850000D01*
X131037440Y-80850000D01*
X131037440Y-80430000D01*
X130993162Y-80194683D01*
X130854090Y-79978559D01*
X130641890Y-79833569D01*
X130390000Y-79782560D01*
X128690000Y-79782560D01*
X128454683Y-79826838D01*
X128238559Y-79965910D01*
X128093569Y-80178110D01*
X128042560Y-80430000D01*
X128042560Y-82130000D01*
X128086838Y-82365317D01*
X128225910Y-82581441D01*
X128438110Y-82726431D01*
X128505541Y-82740086D01*
X128460853Y-82769946D01*
X128138946Y-83251715D01*
X128025907Y-83820000D01*
X128138946Y-84388285D01*
X128460853Y-84870054D01*
X128790026Y-85090000D01*
X128460853Y-85309946D01*
X128138946Y-85791715D01*
X128025907Y-86360000D01*
X128138946Y-86928285D01*
X128460853Y-87410054D01*
X128790026Y-87630000D01*
X128460853Y-87849946D01*
X128267046Y-88140000D01*
X127314802Y-88140000D01*
X127027440Y-87852638D01*
X127027440Y-86960000D01*
X126983162Y-86724683D01*
X126844090Y-86508559D01*
X126631890Y-86363569D01*
X126598510Y-86356809D01*
X126739699Y-86298327D01*
X126918327Y-86119698D01*
X127015000Y-85886309D01*
X127015000Y-85295750D01*
X126856250Y-85137000D01*
X125857000Y-85137000D01*
X125857000Y-85157000D01*
X125603000Y-85157000D01*
X125603000Y-85137000D01*
X124603750Y-85137000D01*
X124445000Y-85295750D01*
X124445000Y-85886309D01*
X124541673Y-86119698D01*
X124720301Y-86298327D01*
X124856287Y-86354654D01*
X124844683Y-86356838D01*
X124628559Y-86495910D01*
X124483569Y-86708110D01*
X124432560Y-86960000D01*
X124432560Y-88460000D01*
X124476838Y-88695317D01*
X124615910Y-88911441D01*
X124828110Y-89056431D01*
X124970000Y-89085164D01*
X124970000Y-89983258D01*
X124844683Y-90006838D01*
X124628559Y-90145910D01*
X124483569Y-90358110D01*
X124432560Y-90610000D01*
X124432560Y-91607758D01*
X122147440Y-89322638D01*
X122147440Y-88050000D01*
X122103162Y-87814683D01*
X121964090Y-87598559D01*
X121751890Y-87453569D01*
X121500000Y-87402560D01*
X119800000Y-87402560D01*
X119564683Y-87446838D01*
X119348559Y-87585910D01*
X119203569Y-87798110D01*
X119152560Y-88050000D01*
X119152560Y-89750000D01*
X119196838Y-89985317D01*
X119335910Y-90201441D01*
X119548110Y-90346431D01*
X119615541Y-90360086D01*
X119570853Y-90389946D01*
X119248946Y-90871715D01*
X119135907Y-91440000D01*
X119248946Y-92008285D01*
X119570853Y-92490054D01*
X120052622Y-92811961D01*
X120620907Y-92925000D01*
X120679093Y-92925000D01*
X121247378Y-92811961D01*
X121729147Y-92490054D01*
X122051054Y-92008285D01*
X122155981Y-91480783D01*
X124432560Y-93757362D01*
X124432560Y-94810000D01*
X124476838Y-95045317D01*
X124615910Y-95261441D01*
X124828110Y-95406431D01*
X124970000Y-95435164D01*
X124970000Y-95957537D01*
X124937808Y-95989673D01*
X124795162Y-96333201D01*
X124794838Y-96705167D01*
X124936883Y-97048943D01*
X125199673Y-97312192D01*
X125543201Y-97454838D01*
X125915167Y-97455162D01*
X126258943Y-97313117D01*
X126522192Y-97050327D01*
X126664838Y-96706799D01*
X126665162Y-96334833D01*
X126523117Y-95991057D01*
X126490000Y-95957882D01*
X126490000Y-95436742D01*
X126615317Y-95413162D01*
X126831441Y-95274090D01*
X126976431Y-95061890D01*
X127027440Y-94810000D01*
X127027440Y-93310000D01*
X126983162Y-93074683D01*
X126844090Y-92858559D01*
X126631890Y-92713569D01*
X126618803Y-92710919D01*
X126831441Y-92574090D01*
X126976431Y-92361890D01*
X127027440Y-92110000D01*
X127027440Y-90610000D01*
X126983162Y-90374683D01*
X126844090Y-90158559D01*
X126631890Y-90013569D01*
X126490000Y-89984836D01*
X126490000Y-89455710D01*
X126709161Y-89602148D01*
X127000000Y-89660000D01*
X128267046Y-89660000D01*
X128460853Y-89950054D01*
X128790026Y-90170000D01*
X128460853Y-90389946D01*
X128138946Y-90871715D01*
X128025907Y-91440000D01*
X128138946Y-92008285D01*
X128460853Y-92490054D01*
X128790026Y-92710000D01*
X128460853Y-92929946D01*
X128138946Y-93411715D01*
X128025907Y-93980000D01*
X128138946Y-94548285D01*
X128460853Y-95030054D01*
X128790026Y-95250000D01*
X128460853Y-95469946D01*
X128138946Y-95951715D01*
X128025907Y-96520000D01*
X128138946Y-97088285D01*
X128460853Y-97570054D01*
X128790026Y-97790000D01*
X128460853Y-98009946D01*
X128138946Y-98491715D01*
X128025907Y-99060000D01*
X128138946Y-99628285D01*
X128460853Y-100110054D01*
X128790026Y-100330000D01*
X128460853Y-100549946D01*
X128267046Y-100840000D01*
X126044802Y-100840000D01*
X124997401Y-99792599D01*
X124750839Y-99627852D01*
X124460000Y-99570000D01*
X119380000Y-99570000D01*
X119089160Y-99627852D01*
X118842599Y-99792599D01*
X117795198Y-100840000D01*
X110492954Y-100840000D01*
X110299147Y-100549946D01*
X109958447Y-100322298D01*
X110101358Y-100255183D01*
X110491645Y-99826924D01*
X110661476Y-99416890D01*
X110540155Y-99187000D01*
X109347000Y-99187000D01*
X109347000Y-99207000D01*
X109093000Y-99207000D01*
X109093000Y-99187000D01*
X107899845Y-99187000D01*
X107778524Y-99416890D01*
X107948355Y-99826924D01*
X108338642Y-100255183D01*
X108481553Y-100322298D01*
X108140853Y-100549946D01*
X107818946Y-101031715D01*
X107705907Y-101600000D01*
X107390000Y-101600000D01*
X107390000Y-98703110D01*
X107778524Y-98703110D01*
X107899845Y-98933000D01*
X109093000Y-98933000D01*
X109093000Y-97739181D01*
X109347000Y-97739181D01*
X109347000Y-98933000D01*
X110540155Y-98933000D01*
X110661476Y-98703110D01*
X110491645Y-98293076D01*
X110101358Y-97864817D01*
X109576892Y-97618514D01*
X109347000Y-97739181D01*
X109093000Y-97739181D01*
X108863108Y-97618514D01*
X108338642Y-97864817D01*
X107948355Y-98293076D01*
X107778524Y-98703110D01*
X107390000Y-98703110D01*
X107390000Y-91796890D01*
X109048524Y-91796890D01*
X109218355Y-92206924D01*
X109608642Y-92635183D01*
X110133108Y-92881486D01*
X110363000Y-92760819D01*
X110363000Y-91567000D01*
X110617000Y-91567000D01*
X110617000Y-92760819D01*
X110846892Y-92881486D01*
X111371358Y-92635183D01*
X111761645Y-92206924D01*
X111931476Y-91796890D01*
X114128524Y-91796890D01*
X114298355Y-92206924D01*
X114688642Y-92635183D01*
X115213108Y-92881486D01*
X115443000Y-92760819D01*
X115443000Y-91567000D01*
X115697000Y-91567000D01*
X115697000Y-92760819D01*
X115926892Y-92881486D01*
X116451358Y-92635183D01*
X116841645Y-92206924D01*
X117011476Y-91796890D01*
X116890155Y-91567000D01*
X115697000Y-91567000D01*
X115443000Y-91567000D01*
X114249845Y-91567000D01*
X114128524Y-91796890D01*
X111931476Y-91796890D01*
X111810155Y-91567000D01*
X110617000Y-91567000D01*
X110363000Y-91567000D01*
X109169845Y-91567000D01*
X109048524Y-91796890D01*
X107390000Y-91796890D01*
X107390000Y-88050000D01*
X108992560Y-88050000D01*
X108992560Y-89750000D01*
X109036838Y-89985317D01*
X109175910Y-90201441D01*
X109388110Y-90346431D01*
X109496107Y-90368301D01*
X109218355Y-90673076D01*
X109048524Y-91083110D01*
X109169845Y-91313000D01*
X110363000Y-91313000D01*
X110363000Y-91293000D01*
X110617000Y-91293000D01*
X110617000Y-91313000D01*
X111810155Y-91313000D01*
X111931476Y-91083110D01*
X111761645Y-90673076D01*
X111485499Y-90370063D01*
X111575317Y-90353162D01*
X111791441Y-90214090D01*
X111936431Y-90001890D01*
X111987440Y-89750000D01*
X111987440Y-88050000D01*
X114072560Y-88050000D01*
X114072560Y-89750000D01*
X114116838Y-89985317D01*
X114255910Y-90201441D01*
X114468110Y-90346431D01*
X114576107Y-90368301D01*
X114298355Y-90673076D01*
X114128524Y-91083110D01*
X114249845Y-91313000D01*
X115443000Y-91313000D01*
X115443000Y-91293000D01*
X115697000Y-91293000D01*
X115697000Y-91313000D01*
X116890155Y-91313000D01*
X117011476Y-91083110D01*
X116841645Y-90673076D01*
X116565499Y-90370063D01*
X116655317Y-90353162D01*
X116871441Y-90214090D01*
X117016431Y-90001890D01*
X117067440Y-89750000D01*
X117067440Y-88050000D01*
X117023162Y-87814683D01*
X116884090Y-87598559D01*
X116671890Y-87453569D01*
X116420000Y-87402560D01*
X114720000Y-87402560D01*
X114484683Y-87446838D01*
X114268559Y-87585910D01*
X114123569Y-87798110D01*
X114072560Y-88050000D01*
X111987440Y-88050000D01*
X111943162Y-87814683D01*
X111804090Y-87598559D01*
X111591890Y-87453569D01*
X111340000Y-87402560D01*
X109640000Y-87402560D01*
X109404683Y-87446838D01*
X109188559Y-87585910D01*
X109043569Y-87798110D01*
X108992560Y-88050000D01*
X107390000Y-88050000D01*
X107390000Y-84133691D01*
X124445000Y-84133691D01*
X124445000Y-84724250D01*
X124603750Y-84883000D01*
X125603000Y-84883000D01*
X125603000Y-83783750D01*
X125857000Y-83783750D01*
X125857000Y-84883000D01*
X126856250Y-84883000D01*
X127015000Y-84724250D01*
X127015000Y-84133691D01*
X126918327Y-83900302D01*
X126739699Y-83721673D01*
X126506310Y-83625000D01*
X126015750Y-83625000D01*
X125857000Y-83783750D01*
X125603000Y-83783750D01*
X125444250Y-83625000D01*
X124953690Y-83625000D01*
X124720301Y-83721673D01*
X124541673Y-83900302D01*
X124445000Y-84133691D01*
X107390000Y-84133691D01*
X107390000Y-82093109D01*
X107654657Y-82093109D01*
X107956218Y-82822943D01*
X108514120Y-83381819D01*
X109243427Y-83684654D01*
X110033109Y-83685343D01*
X110762943Y-83383782D01*
X111321819Y-82825880D01*
X111624654Y-82096573D01*
X111625343Y-81306891D01*
X111436560Y-80850000D01*
X119152560Y-80850000D01*
X119152560Y-82550000D01*
X119196838Y-82785317D01*
X119335910Y-83001441D01*
X119548110Y-83146431D01*
X119800000Y-83197440D01*
X121500000Y-83197440D01*
X121735317Y-83153162D01*
X121951441Y-83014090D01*
X122096431Y-82801890D01*
X122110086Y-82734459D01*
X122139946Y-82779147D01*
X122621715Y-83101054D01*
X123190000Y-83214093D01*
X123758285Y-83101054D01*
X124240054Y-82779147D01*
X124460000Y-82449974D01*
X124679946Y-82779147D01*
X125161715Y-83101054D01*
X125730000Y-83214093D01*
X126298285Y-83101054D01*
X126780054Y-82779147D01*
X127101961Y-82297378D01*
X127215000Y-81729093D01*
X127215000Y-81670907D01*
X127101961Y-81102622D01*
X126780054Y-80620853D01*
X126298285Y-80298946D01*
X125730000Y-80185907D01*
X125161715Y-80298946D01*
X124679946Y-80620853D01*
X124460000Y-80950026D01*
X124240054Y-80620853D01*
X123758285Y-80298946D01*
X123190000Y-80185907D01*
X122621715Y-80298946D01*
X122139946Y-80620853D01*
X122112150Y-80662452D01*
X122103162Y-80614683D01*
X121964090Y-80398559D01*
X121751890Y-80253569D01*
X121500000Y-80202560D01*
X119800000Y-80202560D01*
X119564683Y-80246838D01*
X119348559Y-80385910D01*
X119203569Y-80598110D01*
X119152560Y-80850000D01*
X111436560Y-80850000D01*
X111323782Y-80577057D01*
X110765880Y-80018181D01*
X110036573Y-79715346D01*
X109246891Y-79714657D01*
X108517057Y-80016218D01*
X107958181Y-80574120D01*
X107655346Y-81303427D01*
X107654657Y-82093109D01*
X107390000Y-82093109D01*
X107390000Y-79450000D01*
X151690000Y-79450000D01*
X151690000Y-123750000D01*
X151690000Y-123750000D01*
G37*
X151690000Y-123750000D02*
X107390000Y-123750000D01*
X107390000Y-121893109D01*
X107654657Y-121893109D01*
X107956218Y-122622943D01*
X108514120Y-123181819D01*
X109243427Y-123484654D01*
X110033109Y-123485343D01*
X110762943Y-123183782D01*
X111321819Y-122625880D01*
X111624654Y-121896573D01*
X111625343Y-121106891D01*
X111323782Y-120377057D01*
X110765880Y-119818181D01*
X110036573Y-119515346D01*
X109246891Y-119514657D01*
X108517057Y-119816218D01*
X107958181Y-120374120D01*
X107655346Y-121103427D01*
X107654657Y-121893109D01*
X107390000Y-121893109D01*
X107390000Y-114570510D01*
X112653070Y-114570510D01*
X112653070Y-116569490D01*
X112697348Y-116804807D01*
X112836420Y-117020931D01*
X113048620Y-117165921D01*
X113300510Y-117216930D01*
X113588095Y-117216930D01*
X113338355Y-117466235D01*
X113165197Y-117883244D01*
X113164803Y-118334775D01*
X113337233Y-118752086D01*
X113656235Y-119071645D01*
X114073244Y-119244803D01*
X114524775Y-119245197D01*
X114942086Y-119072767D01*
X115261645Y-118753765D01*
X115434803Y-118336756D01*
X115435197Y-117885225D01*
X115262767Y-117467914D01*
X115012220Y-117216930D01*
X115299490Y-117216930D01*
X115534807Y-117172652D01*
X115750931Y-117033580D01*
X115861094Y-116872351D01*
X115880274Y-116893068D01*
X116321614Y-117096121D01*
X116197914Y-117147233D01*
X115878355Y-117466235D01*
X115705197Y-117883244D01*
X115704803Y-118334775D01*
X115877233Y-118752086D01*
X116196235Y-119071645D01*
X116613244Y-119244803D01*
X117064775Y-119245197D01*
X117482086Y-119072767D01*
X117801645Y-118753765D01*
X117974803Y-118336756D01*
X117975197Y-117885225D01*
X117802767Y-117467914D01*
X117483765Y-117148355D01*
X117358190Y-117096211D01*
X117799726Y-116893068D01*
X118232987Y-116425084D01*
X118429619Y-115950354D01*
X118310265Y-115697000D01*
X116967000Y-115697000D01*
X116967000Y-115717000D01*
X116713000Y-115717000D01*
X116713000Y-115697000D01*
X116693000Y-115697000D01*
X116693000Y-115443000D01*
X116713000Y-115443000D01*
X116713000Y-114099193D01*
X116967000Y-114099193D01*
X116967000Y-115443000D01*
X118310265Y-115443000D01*
X118429619Y-115189646D01*
X118232987Y-114714916D01*
X117799726Y-114246932D01*
X117220355Y-113980373D01*
X116967000Y-114099193D01*
X116713000Y-114099193D01*
X116459645Y-113980373D01*
X115880274Y-114246932D01*
X115859970Y-114268863D01*
X115763580Y-114119069D01*
X115551380Y-113974079D01*
X115299490Y-113923070D01*
X113300510Y-113923070D01*
X113065193Y-113967348D01*
X112849069Y-114106420D01*
X112704079Y-114318620D01*
X112653070Y-114570510D01*
X107390000Y-114570510D01*
X107390000Y-101600000D01*
X107705907Y-101600000D01*
X107818946Y-102168285D01*
X108140853Y-102650054D01*
X108470026Y-102870000D01*
X108140853Y-103089946D01*
X107818946Y-103571715D01*
X107705907Y-104140000D01*
X107818946Y-104708285D01*
X108140853Y-105190054D01*
X108470026Y-105410000D01*
X108140853Y-105629946D01*
X107818946Y-106111715D01*
X107705907Y-106680000D01*
X107818946Y-107248285D01*
X108140853Y-107730054D01*
X108182452Y-107757850D01*
X108134683Y-107766838D01*
X107918559Y-107905910D01*
X107773569Y-108118110D01*
X107722560Y-108370000D01*
X107722560Y-110070000D01*
X107766838Y-110305317D01*
X107905910Y-110521441D01*
X108118110Y-110666431D01*
X108370000Y-110717440D01*
X110070000Y-110717440D01*
X110305317Y-110673162D01*
X110521441Y-110534090D01*
X110666431Y-110321890D01*
X110717440Y-110070000D01*
X110717440Y-109980000D01*
X127705198Y-109980000D01*
X123592638Y-114092560D01*
X122540000Y-114092560D01*
X122304683Y-114136838D01*
X122088559Y-114275910D01*
X121943569Y-114488110D01*
X121892560Y-114740000D01*
X121892560Y-116240000D01*
X121936838Y-116475317D01*
X122075910Y-116691441D01*
X122288110Y-116836431D01*
X122301197Y-116839081D01*
X122088559Y-116975910D01*
X121943569Y-117188110D01*
X121892560Y-117440000D01*
X121892560Y-118940000D01*
X121936838Y-119175317D01*
X122075910Y-119391441D01*
X122288110Y-119536431D01*
X122540000Y-119587440D01*
X122742638Y-119587440D01*
X123170198Y-120015000D01*
X123062998Y-120015000D01*
X123062998Y-120179844D01*
X122833110Y-120058524D01*
X122423076Y-120228355D01*
X121994817Y-120618642D01*
X121927702Y-120761553D01*
X121700054Y-120420853D01*
X121218285Y-120098946D01*
X120650000Y-119985907D01*
X120081715Y-120098946D01*
X119599946Y-120420853D01*
X119278039Y-120902622D01*
X119165000Y-121470907D01*
X119165000Y-121529093D01*
X119278039Y-122097378D01*
X119599946Y-122579147D01*
X120081715Y-122901054D01*
X120650000Y-123014093D01*
X121218285Y-122901054D01*
X121700054Y-122579147D01*
X121927702Y-122238447D01*
X121994817Y-122381358D01*
X122423076Y-122771645D01*
X122833110Y-122941476D01*
X123063000Y-122820155D01*
X123063000Y-121627000D01*
X123043000Y-121627000D01*
X123043000Y-121373000D01*
X123063000Y-121373000D01*
X123063000Y-121353000D01*
X123317000Y-121353000D01*
X123317000Y-121373000D01*
X123337000Y-121373000D01*
X123337000Y-121627000D01*
X123317000Y-121627000D01*
X123317000Y-122820155D01*
X123546890Y-122941476D01*
X123956924Y-122771645D01*
X124385183Y-122381358D01*
X124452298Y-122238447D01*
X124679946Y-122579147D01*
X125161715Y-122901054D01*
X125730000Y-123014093D01*
X126298285Y-122901054D01*
X126780054Y-122579147D01*
X127000000Y-122249974D01*
X127219946Y-122579147D01*
X127701715Y-122901054D01*
X128270000Y-123014093D01*
X128838285Y-122901054D01*
X129320054Y-122579147D01*
X129540000Y-122249974D01*
X129759946Y-122579147D01*
X130241715Y-122901054D01*
X130810000Y-123014093D01*
X131378285Y-122901054D01*
X131860054Y-122579147D01*
X132080000Y-122249974D01*
X132299946Y-122579147D01*
X132781715Y-122901054D01*
X133350000Y-123014093D01*
X133918285Y-122901054D01*
X134400054Y-122579147D01*
X134620000Y-122249974D01*
X134839946Y-122579147D01*
X135321715Y-122901054D01*
X135890000Y-123014093D01*
X136458285Y-122901054D01*
X136940054Y-122579147D01*
X136967850Y-122537548D01*
X136976838Y-122585317D01*
X137115910Y-122801441D01*
X137328110Y-122946431D01*
X137580000Y-122997440D01*
X139280000Y-122997440D01*
X139515317Y-122953162D01*
X139731441Y-122814090D01*
X139876431Y-122601890D01*
X139927440Y-122350000D01*
X139927440Y-121893109D01*
X147454657Y-121893109D01*
X147756218Y-122622943D01*
X148314120Y-123181819D01*
X149043427Y-123484654D01*
X149833109Y-123485343D01*
X150562943Y-123183782D01*
X151121819Y-122625880D01*
X151424654Y-121896573D01*
X151425343Y-121106891D01*
X151123782Y-120377057D01*
X150565880Y-119818181D01*
X149836573Y-119515346D01*
X149046891Y-119514657D01*
X148317057Y-119816218D01*
X147758181Y-120374120D01*
X147455346Y-121103427D01*
X147454657Y-121893109D01*
X139927440Y-121893109D01*
X139927440Y-121077362D01*
X141417362Y-119587440D01*
X141620000Y-119587440D01*
X141855317Y-119543162D01*
X142071441Y-119404090D01*
X142216431Y-119191890D01*
X142267440Y-118940000D01*
X142267440Y-117440000D01*
X142223162Y-117204683D01*
X142084090Y-116988559D01*
X141871890Y-116843569D01*
X141858803Y-116840919D01*
X142071441Y-116704090D01*
X142216431Y-116491890D01*
X142267440Y-116240000D01*
X142267440Y-114740000D01*
X142223162Y-114504683D01*
X142084090Y-114288559D01*
X141871890Y-114143569D01*
X141730000Y-114114836D01*
X141730000Y-111760000D01*
X143265907Y-111760000D01*
X143378946Y-112328285D01*
X143700853Y-112810054D01*
X144030026Y-113030000D01*
X143700853Y-113249946D01*
X143378946Y-113731715D01*
X143265907Y-114300000D01*
X143378946Y-114868285D01*
X143700853Y-115350054D01*
X143742452Y-115377850D01*
X143694683Y-115386838D01*
X143478559Y-115525910D01*
X143333569Y-115738110D01*
X143282560Y-115990000D01*
X143282560Y-117690000D01*
X143326838Y-117925317D01*
X143465910Y-118141441D01*
X143678110Y-118286431D01*
X143930000Y-118337440D01*
X145630000Y-118337440D01*
X145865317Y-118293162D01*
X146081441Y-118154090D01*
X146226431Y-117941890D01*
X146277440Y-117690000D01*
X146277440Y-115990000D01*
X146233162Y-115754683D01*
X146094090Y-115538559D01*
X145881890Y-115393569D01*
X145814459Y-115379914D01*
X145859147Y-115350054D01*
X146181054Y-114868285D01*
X146294093Y-114300000D01*
X146181054Y-113731715D01*
X145859147Y-113249946D01*
X145529974Y-113030000D01*
X145859147Y-112810054D01*
X146181054Y-112328285D01*
X146294093Y-111760000D01*
X146181054Y-111191715D01*
X145859147Y-110709946D01*
X145518447Y-110482298D01*
X145661358Y-110415183D01*
X146051645Y-109986924D01*
X146221476Y-109576890D01*
X146100155Y-109347000D01*
X144907000Y-109347000D01*
X144907000Y-109367000D01*
X144653000Y-109367000D01*
X144653000Y-109347000D01*
X143459845Y-109347000D01*
X143338524Y-109576890D01*
X143508355Y-109986924D01*
X143898642Y-110415183D01*
X144041553Y-110482298D01*
X143700853Y-110709946D01*
X143378946Y-111191715D01*
X143265907Y-111760000D01*
X141730000Y-111760000D01*
X141730000Y-110490000D01*
X141693264Y-110305317D01*
X141672148Y-110199160D01*
X141507401Y-109952599D01*
X140635122Y-109080320D01*
X140635162Y-109034833D01*
X140493117Y-108691057D01*
X140387290Y-108585046D01*
X140492192Y-108480327D01*
X140634838Y-108136799D01*
X140635162Y-107764833D01*
X140529690Y-107509570D01*
X140783201Y-107614838D01*
X141155167Y-107615162D01*
X141498943Y-107473117D01*
X141762192Y-107210327D01*
X141904838Y-106866799D01*
X141905162Y-106494833D01*
X141799690Y-106239570D01*
X142053201Y-106344838D01*
X142425167Y-106345162D01*
X142768943Y-106203117D01*
X143032192Y-105940327D01*
X143174838Y-105596799D01*
X143175162Y-105224833D01*
X143040944Y-104900000D01*
X143507046Y-104900000D01*
X143700853Y-105190054D01*
X144030026Y-105410000D01*
X143700853Y-105629946D01*
X143378946Y-106111715D01*
X143265907Y-106680000D01*
X143378946Y-107248285D01*
X143700853Y-107730054D01*
X144041553Y-107957702D01*
X143898642Y-108024817D01*
X143508355Y-108453076D01*
X143338524Y-108863110D01*
X143459845Y-109093000D01*
X144653000Y-109093000D01*
X144653000Y-109073000D01*
X144907000Y-109073000D01*
X144907000Y-109093000D01*
X146100155Y-109093000D01*
X146221476Y-108863110D01*
X146051645Y-108453076D01*
X145661358Y-108024817D01*
X145518447Y-107957702D01*
X145859147Y-107730054D01*
X146181054Y-107248285D01*
X146294093Y-106680000D01*
X146181054Y-106111715D01*
X145859147Y-105629946D01*
X145529974Y-105410000D01*
X145859147Y-105190054D01*
X146181054Y-104708285D01*
X146294093Y-104140000D01*
X146181054Y-103571715D01*
X145859147Y-103089946D01*
X145529974Y-102870000D01*
X145859147Y-102650054D01*
X146181054Y-102168285D01*
X146294093Y-101600000D01*
X146181054Y-101031715D01*
X145859147Y-100549946D01*
X145529974Y-100330000D01*
X145859147Y-100110054D01*
X146181054Y-99628285D01*
X146294093Y-99060000D01*
X146181054Y-98491715D01*
X145859147Y-98009946D01*
X145529974Y-97790000D01*
X145859147Y-97570054D01*
X146181054Y-97088285D01*
X146294093Y-96520000D01*
X146181054Y-95951715D01*
X145859147Y-95469946D01*
X145529974Y-95250000D01*
X145859147Y-95030054D01*
X146181054Y-94548285D01*
X146294093Y-93980000D01*
X146181054Y-93411715D01*
X145859147Y-92929946D01*
X145529974Y-92710000D01*
X145859147Y-92490054D01*
X146181054Y-92008285D01*
X146294093Y-91440000D01*
X146181054Y-90871715D01*
X145859147Y-90389946D01*
X145529974Y-90170000D01*
X145859147Y-89950054D01*
X146181054Y-89468285D01*
X146294093Y-88900000D01*
X146181054Y-88331715D01*
X145859147Y-87849946D01*
X145529974Y-87630000D01*
X145859147Y-87410054D01*
X146181054Y-86928285D01*
X146294093Y-86360000D01*
X146181054Y-85791715D01*
X145859147Y-85309946D01*
X145529974Y-85090000D01*
X145859147Y-84870054D01*
X146181054Y-84388285D01*
X146294093Y-83820000D01*
X146181054Y-83251715D01*
X145859147Y-82769946D01*
X145529974Y-82550000D01*
X145859147Y-82330054D01*
X146017468Y-82093109D01*
X147454657Y-82093109D01*
X147756218Y-82822943D01*
X148314120Y-83381819D01*
X149043427Y-83684654D01*
X149833109Y-83685343D01*
X150562943Y-83383782D01*
X151121819Y-82825880D01*
X151424654Y-82096573D01*
X151425343Y-81306891D01*
X151123782Y-80577057D01*
X150565880Y-80018181D01*
X149836573Y-79715346D01*
X149046891Y-79714657D01*
X148317057Y-80016218D01*
X147758181Y-80574120D01*
X147455346Y-81303427D01*
X147454657Y-82093109D01*
X146017468Y-82093109D01*
X146181054Y-81848285D01*
X146294093Y-81280000D01*
X146181054Y-80711715D01*
X145859147Y-80229946D01*
X145377378Y-79908039D01*
X144809093Y-79795000D01*
X144750907Y-79795000D01*
X144182622Y-79908039D01*
X143700853Y-80229946D01*
X143378946Y-80711715D01*
X143265907Y-81280000D01*
X143378946Y-81848285D01*
X143700853Y-82330054D01*
X144030026Y-82550000D01*
X143700853Y-82769946D01*
X143378946Y-83251715D01*
X143265907Y-83820000D01*
X143378946Y-84388285D01*
X143700853Y-84870054D01*
X144030026Y-85090000D01*
X143700853Y-85309946D01*
X143378946Y-85791715D01*
X143265907Y-86360000D01*
X143378946Y-86928285D01*
X143700853Y-87410054D01*
X144030026Y-87630000D01*
X143700853Y-87849946D01*
X143378946Y-88331715D01*
X143265907Y-88900000D01*
X143378946Y-89468285D01*
X143700853Y-89950054D01*
X144030026Y-90170000D01*
X143700853Y-90389946D01*
X143378946Y-90871715D01*
X143265907Y-91440000D01*
X143378946Y-92008285D01*
X143700853Y-92490054D01*
X144030026Y-92710000D01*
X143700853Y-92929946D01*
X143378946Y-93411715D01*
X143265907Y-93980000D01*
X143378946Y-94548285D01*
X143700853Y-95030054D01*
X144030026Y-95250000D01*
X143700853Y-95469946D01*
X143378946Y-95951715D01*
X143265907Y-96520000D01*
X143378946Y-97088285D01*
X143700853Y-97570054D01*
X144030026Y-97790000D01*
X143700853Y-98009946D01*
X143378946Y-98491715D01*
X143265907Y-99060000D01*
X143378946Y-99628285D01*
X143700853Y-100110054D01*
X144030026Y-100330000D01*
X143700853Y-100549946D01*
X143507046Y-100840000D01*
X140970000Y-100840000D01*
X140679161Y-100897852D01*
X140432599Y-101062599D01*
X131765198Y-109730000D01*
X130952648Y-109730000D01*
X131054093Y-109220000D01*
X130941054Y-108651715D01*
X130619147Y-108169946D01*
X130289974Y-107950000D01*
X130619147Y-107730054D01*
X130941054Y-107248285D01*
X131054093Y-106680000D01*
X130941054Y-106111715D01*
X130619147Y-105629946D01*
X130289974Y-105410000D01*
X130619147Y-105190054D01*
X130941054Y-104708285D01*
X131054093Y-104140000D01*
X130941054Y-103571715D01*
X130619147Y-103089946D01*
X130289974Y-102870000D01*
X130619147Y-102650054D01*
X130941054Y-102168285D01*
X131054093Y-101600000D01*
X130941054Y-101031715D01*
X130619147Y-100549946D01*
X130289974Y-100330000D01*
X130619147Y-100110054D01*
X130941054Y-99628285D01*
X131054093Y-99060000D01*
X130941054Y-98491715D01*
X130619147Y-98009946D01*
X130289974Y-97790000D01*
X130619147Y-97570054D01*
X130941054Y-97088285D01*
X131054093Y-96520000D01*
X130941054Y-95951715D01*
X130619147Y-95469946D01*
X130289974Y-95250000D01*
X130619147Y-95030054D01*
X130941054Y-94548285D01*
X131054093Y-93980000D01*
X130941054Y-93411715D01*
X130619147Y-92929946D01*
X130289974Y-92710000D01*
X130619147Y-92490054D01*
X130941054Y-92008285D01*
X131054093Y-91440000D01*
X130941054Y-90871715D01*
X130619147Y-90389946D01*
X130289974Y-90170000D01*
X130619147Y-89950054D01*
X130941054Y-89468285D01*
X131054093Y-88900000D01*
X130941054Y-88331715D01*
X130619147Y-87849946D01*
X130289974Y-87630000D01*
X130619147Y-87410054D01*
X130941054Y-86928285D01*
X131045981Y-86400783D01*
X131320000Y-86674802D01*
X131320000Y-94687537D01*
X131287808Y-94719673D01*
X131145162Y-95063201D01*
X131144838Y-95435167D01*
X131286883Y-95778943D01*
X131549673Y-96042192D01*
X131893201Y-96184838D01*
X132265167Y-96185162D01*
X132608943Y-96043117D01*
X132872192Y-95780327D01*
X133014838Y-95436799D01*
X133015162Y-95064833D01*
X132873117Y-94721057D01*
X132840000Y-94687882D01*
X132840000Y-86360000D01*
X132782148Y-86069161D01*
X132782148Y-86069160D01*
X132617401Y-85822599D01*
X130981210Y-84186408D01*
X131054093Y-83820000D01*
X130941054Y-83251715D01*
X130619147Y-82769946D01*
X130577548Y-82742150D01*
X130625317Y-82733162D01*
X130841441Y-82594090D01*
X130986431Y-82381890D01*
X131037440Y-82130000D01*
X131037440Y-80850000D01*
X134392560Y-80850000D01*
X134392560Y-82550000D01*
X134436838Y-82785317D01*
X134575910Y-83001441D01*
X134788110Y-83146431D01*
X135040000Y-83197440D01*
X136740000Y-83197440D01*
X136975317Y-83153162D01*
X137191441Y-83014090D01*
X137336431Y-82801890D01*
X137350086Y-82734459D01*
X137379946Y-82779147D01*
X137861715Y-83101054D01*
X138430000Y-83214093D01*
X138998285Y-83101054D01*
X139480054Y-82779147D01*
X139801961Y-82297378D01*
X139915000Y-81729093D01*
X139915000Y-81670907D01*
X139801961Y-81102622D01*
X139480054Y-80620853D01*
X138998285Y-80298946D01*
X138430000Y-80185907D01*
X137861715Y-80298946D01*
X137379946Y-80620853D01*
X137352150Y-80662452D01*
X137343162Y-80614683D01*
X137204090Y-80398559D01*
X136991890Y-80253569D01*
X136740000Y-80202560D01*
X135040000Y-80202560D01*
X134804683Y-80246838D01*
X134588559Y-80385910D01*
X134443569Y-80598110D01*
X134392560Y-80850000D01*
X131037440Y-80850000D01*
X131037440Y-80430000D01*
X130993162Y-80194683D01*
X130854090Y-79978559D01*
X130641890Y-79833569D01*
X130390000Y-79782560D01*
X128690000Y-79782560D01*
X128454683Y-79826838D01*
X128238559Y-79965910D01*
X128093569Y-80178110D01*
X128042560Y-80430000D01*
X128042560Y-82130000D01*
X128086838Y-82365317D01*
X128225910Y-82581441D01*
X128438110Y-82726431D01*
X128505541Y-82740086D01*
X128460853Y-82769946D01*
X128138946Y-83251715D01*
X128025907Y-83820000D01*
X128138946Y-84388285D01*
X128460853Y-84870054D01*
X128790026Y-85090000D01*
X128460853Y-85309946D01*
X128138946Y-85791715D01*
X128025907Y-86360000D01*
X128138946Y-86928285D01*
X128460853Y-87410054D01*
X128790026Y-87630000D01*
X128460853Y-87849946D01*
X128267046Y-88140000D01*
X127314802Y-88140000D01*
X127027440Y-87852638D01*
X127027440Y-86960000D01*
X126983162Y-86724683D01*
X126844090Y-86508559D01*
X126631890Y-86363569D01*
X126598510Y-86356809D01*
X126739699Y-86298327D01*
X126918327Y-86119698D01*
X127015000Y-85886309D01*
X127015000Y-85295750D01*
X126856250Y-85137000D01*
X125857000Y-85137000D01*
X125857000Y-85157000D01*
X125603000Y-85157000D01*
X125603000Y-85137000D01*
X124603750Y-85137000D01*
X124445000Y-85295750D01*
X124445000Y-85886309D01*
X124541673Y-86119698D01*
X124720301Y-86298327D01*
X124856287Y-86354654D01*
X124844683Y-86356838D01*
X124628559Y-86495910D01*
X124483569Y-86708110D01*
X124432560Y-86960000D01*
X124432560Y-88460000D01*
X124476838Y-88695317D01*
X124615910Y-88911441D01*
X124828110Y-89056431D01*
X124970000Y-89085164D01*
X124970000Y-89983258D01*
X124844683Y-90006838D01*
X124628559Y-90145910D01*
X124483569Y-90358110D01*
X124432560Y-90610000D01*
X124432560Y-91607758D01*
X122147440Y-89322638D01*
X122147440Y-88050000D01*
X122103162Y-87814683D01*
X121964090Y-87598559D01*
X121751890Y-87453569D01*
X121500000Y-87402560D01*
X119800000Y-87402560D01*
X119564683Y-87446838D01*
X119348559Y-87585910D01*
X119203569Y-87798110D01*
X119152560Y-88050000D01*
X119152560Y-89750000D01*
X119196838Y-89985317D01*
X119335910Y-90201441D01*
X119548110Y-90346431D01*
X119615541Y-90360086D01*
X119570853Y-90389946D01*
X119248946Y-90871715D01*
X119135907Y-91440000D01*
X119248946Y-92008285D01*
X119570853Y-92490054D01*
X120052622Y-92811961D01*
X120620907Y-92925000D01*
X120679093Y-92925000D01*
X121247378Y-92811961D01*
X121729147Y-92490054D01*
X122051054Y-92008285D01*
X122155981Y-91480783D01*
X124432560Y-93757362D01*
X124432560Y-94810000D01*
X124476838Y-95045317D01*
X124615910Y-95261441D01*
X124828110Y-95406431D01*
X124970000Y-95435164D01*
X124970000Y-95957537D01*
X124937808Y-95989673D01*
X124795162Y-96333201D01*
X124794838Y-96705167D01*
X124936883Y-97048943D01*
X125199673Y-97312192D01*
X125543201Y-97454838D01*
X125915167Y-97455162D01*
X126258943Y-97313117D01*
X126522192Y-97050327D01*
X126664838Y-96706799D01*
X126665162Y-96334833D01*
X126523117Y-95991057D01*
X126490000Y-95957882D01*
X126490000Y-95436742D01*
X126615317Y-95413162D01*
X126831441Y-95274090D01*
X126976431Y-95061890D01*
X127027440Y-94810000D01*
X127027440Y-93310000D01*
X126983162Y-93074683D01*
X126844090Y-92858559D01*
X126631890Y-92713569D01*
X126618803Y-92710919D01*
X126831441Y-92574090D01*
X126976431Y-92361890D01*
X127027440Y-92110000D01*
X127027440Y-90610000D01*
X126983162Y-90374683D01*
X126844090Y-90158559D01*
X126631890Y-90013569D01*
X126490000Y-89984836D01*
X126490000Y-89455710D01*
X126709161Y-89602148D01*
X127000000Y-89660000D01*
X128267046Y-89660000D01*
X128460853Y-89950054D01*
X128790026Y-90170000D01*
X128460853Y-90389946D01*
X128138946Y-90871715D01*
X128025907Y-91440000D01*
X128138946Y-92008285D01*
X128460853Y-92490054D01*
X128790026Y-92710000D01*
X128460853Y-92929946D01*
X128138946Y-93411715D01*
X128025907Y-93980000D01*
X128138946Y-94548285D01*
X128460853Y-95030054D01*
X128790026Y-95250000D01*
X128460853Y-95469946D01*
X128138946Y-95951715D01*
X128025907Y-96520000D01*
X128138946Y-97088285D01*
X128460853Y-97570054D01*
X128790026Y-97790000D01*
X128460853Y-98009946D01*
X128138946Y-98491715D01*
X128025907Y-99060000D01*
X128138946Y-99628285D01*
X128460853Y-100110054D01*
X128790026Y-100330000D01*
X128460853Y-100549946D01*
X128267046Y-100840000D01*
X126044802Y-100840000D01*
X124997401Y-99792599D01*
X124750839Y-99627852D01*
X124460000Y-99570000D01*
X119380000Y-99570000D01*
X119089160Y-99627852D01*
X118842599Y-99792599D01*
X117795198Y-100840000D01*
X110492954Y-100840000D01*
X110299147Y-100549946D01*
X109958447Y-100322298D01*
X110101358Y-100255183D01*
X110491645Y-99826924D01*
X110661476Y-99416890D01*
X110540155Y-99187000D01*
X109347000Y-99187000D01*
X109347000Y-99207000D01*
X109093000Y-99207000D01*
X109093000Y-99187000D01*
X107899845Y-99187000D01*
X107778524Y-99416890D01*
X107948355Y-99826924D01*
X108338642Y-100255183D01*
X108481553Y-100322298D01*
X108140853Y-100549946D01*
X107818946Y-101031715D01*
X107705907Y-101600000D01*
X107390000Y-101600000D01*
X107390000Y-98703110D01*
X107778524Y-98703110D01*
X107899845Y-98933000D01*
X109093000Y-98933000D01*
X109093000Y-97739181D01*
X109347000Y-97739181D01*
X109347000Y-98933000D01*
X110540155Y-98933000D01*
X110661476Y-98703110D01*
X110491645Y-98293076D01*
X110101358Y-97864817D01*
X109576892Y-97618514D01*
X109347000Y-97739181D01*
X109093000Y-97739181D01*
X108863108Y-97618514D01*
X108338642Y-97864817D01*
X107948355Y-98293076D01*
X107778524Y-98703110D01*
X107390000Y-98703110D01*
X107390000Y-91796890D01*
X109048524Y-91796890D01*
X109218355Y-92206924D01*
X109608642Y-92635183D01*
X110133108Y-92881486D01*
X110363000Y-92760819D01*
X110363000Y-91567000D01*
X110617000Y-91567000D01*
X110617000Y-92760819D01*
X110846892Y-92881486D01*
X111371358Y-92635183D01*
X111761645Y-92206924D01*
X111931476Y-91796890D01*
X114128524Y-91796890D01*
X114298355Y-92206924D01*
X114688642Y-92635183D01*
X115213108Y-92881486D01*
X115443000Y-92760819D01*
X115443000Y-91567000D01*
X115697000Y-91567000D01*
X115697000Y-92760819D01*
X115926892Y-92881486D01*
X116451358Y-92635183D01*
X116841645Y-92206924D01*
X117011476Y-91796890D01*
X116890155Y-91567000D01*
X115697000Y-91567000D01*
X115443000Y-91567000D01*
X114249845Y-91567000D01*
X114128524Y-91796890D01*
X111931476Y-91796890D01*
X111810155Y-91567000D01*
X110617000Y-91567000D01*
X110363000Y-91567000D01*
X109169845Y-91567000D01*
X109048524Y-91796890D01*
X107390000Y-91796890D01*
X107390000Y-88050000D01*
X108992560Y-88050000D01*
X108992560Y-89750000D01*
X109036838Y-89985317D01*
X109175910Y-90201441D01*
X109388110Y-90346431D01*
X109496107Y-90368301D01*
X109218355Y-90673076D01*
X109048524Y-91083110D01*
X109169845Y-91313000D01*
X110363000Y-91313000D01*
X110363000Y-91293000D01*
X110617000Y-91293000D01*
X110617000Y-91313000D01*
X111810155Y-91313000D01*
X111931476Y-91083110D01*
X111761645Y-90673076D01*
X111485499Y-90370063D01*
X111575317Y-90353162D01*
X111791441Y-90214090D01*
X111936431Y-90001890D01*
X111987440Y-89750000D01*
X111987440Y-88050000D01*
X114072560Y-88050000D01*
X114072560Y-89750000D01*
X114116838Y-89985317D01*
X114255910Y-90201441D01*
X114468110Y-90346431D01*
X114576107Y-90368301D01*
X114298355Y-90673076D01*
X114128524Y-91083110D01*
X114249845Y-91313000D01*
X115443000Y-91313000D01*
X115443000Y-91293000D01*
X115697000Y-91293000D01*
X115697000Y-91313000D01*
X116890155Y-91313000D01*
X117011476Y-91083110D01*
X116841645Y-90673076D01*
X116565499Y-90370063D01*
X116655317Y-90353162D01*
X116871441Y-90214090D01*
X117016431Y-90001890D01*
X117067440Y-89750000D01*
X117067440Y-88050000D01*
X117023162Y-87814683D01*
X116884090Y-87598559D01*
X116671890Y-87453569D01*
X116420000Y-87402560D01*
X114720000Y-87402560D01*
X114484683Y-87446838D01*
X114268559Y-87585910D01*
X114123569Y-87798110D01*
X114072560Y-88050000D01*
X111987440Y-88050000D01*
X111943162Y-87814683D01*
X111804090Y-87598559D01*
X111591890Y-87453569D01*
X111340000Y-87402560D01*
X109640000Y-87402560D01*
X109404683Y-87446838D01*
X109188559Y-87585910D01*
X109043569Y-87798110D01*
X108992560Y-88050000D01*
X107390000Y-88050000D01*
X107390000Y-84133691D01*
X124445000Y-84133691D01*
X124445000Y-84724250D01*
X124603750Y-84883000D01*
X125603000Y-84883000D01*
X125603000Y-83783750D01*
X125857000Y-83783750D01*
X125857000Y-84883000D01*
X126856250Y-84883000D01*
X127015000Y-84724250D01*
X127015000Y-84133691D01*
X126918327Y-83900302D01*
X126739699Y-83721673D01*
X126506310Y-83625000D01*
X126015750Y-83625000D01*
X125857000Y-83783750D01*
X125603000Y-83783750D01*
X125444250Y-83625000D01*
X124953690Y-83625000D01*
X124720301Y-83721673D01*
X124541673Y-83900302D01*
X124445000Y-84133691D01*
X107390000Y-84133691D01*
X107390000Y-82093109D01*
X107654657Y-82093109D01*
X107956218Y-82822943D01*
X108514120Y-83381819D01*
X109243427Y-83684654D01*
X110033109Y-83685343D01*
X110762943Y-83383782D01*
X111321819Y-82825880D01*
X111624654Y-82096573D01*
X111625343Y-81306891D01*
X111436560Y-80850000D01*
X119152560Y-80850000D01*
X119152560Y-82550000D01*
X119196838Y-82785317D01*
X119335910Y-83001441D01*
X119548110Y-83146431D01*
X119800000Y-83197440D01*
X121500000Y-83197440D01*
X121735317Y-83153162D01*
X121951441Y-83014090D01*
X122096431Y-82801890D01*
X122110086Y-82734459D01*
X122139946Y-82779147D01*
X122621715Y-83101054D01*
X123190000Y-83214093D01*
X123758285Y-83101054D01*
X124240054Y-82779147D01*
X124460000Y-82449974D01*
X124679946Y-82779147D01*
X125161715Y-83101054D01*
X125730000Y-83214093D01*
X126298285Y-83101054D01*
X126780054Y-82779147D01*
X127101961Y-82297378D01*
X127215000Y-81729093D01*
X127215000Y-81670907D01*
X127101961Y-81102622D01*
X126780054Y-80620853D01*
X126298285Y-80298946D01*
X125730000Y-80185907D01*
X125161715Y-80298946D01*
X124679946Y-80620853D01*
X124460000Y-80950026D01*
X124240054Y-80620853D01*
X123758285Y-80298946D01*
X123190000Y-80185907D01*
X122621715Y-80298946D01*
X122139946Y-80620853D01*
X122112150Y-80662452D01*
X122103162Y-80614683D01*
X121964090Y-80398559D01*
X121751890Y-80253569D01*
X121500000Y-80202560D01*
X119800000Y-80202560D01*
X119564683Y-80246838D01*
X119348559Y-80385910D01*
X119203569Y-80598110D01*
X119152560Y-80850000D01*
X111436560Y-80850000D01*
X111323782Y-80577057D01*
X110765880Y-80018181D01*
X110036573Y-79715346D01*
X109246891Y-79714657D01*
X108517057Y-80016218D01*
X107958181Y-80574120D01*
X107655346Y-81303427D01*
X107654657Y-82093109D01*
X107390000Y-82093109D01*
X107390000Y-79450000D01*
X151690000Y-79450000D01*
X151690000Y-123750000D01*
G36*
X132590000Y-114113258D02*
X132464683Y-114136838D01*
X132248559Y-114275910D01*
X132103569Y-114488110D01*
X132052560Y-114740000D01*
X132052560Y-116240000D01*
X132096838Y-116475317D01*
X132235910Y-116691441D01*
X132448110Y-116836431D01*
X132461197Y-116839081D01*
X132248559Y-116975910D01*
X132103569Y-117188110D01*
X132052560Y-117440000D01*
X132052560Y-118940000D01*
X132090985Y-119144213D01*
X131176408Y-120058790D01*
X130810000Y-119985907D01*
X130241715Y-120098946D01*
X129759946Y-120420853D01*
X129540000Y-120750026D01*
X129320054Y-120420853D01*
X128838285Y-120098946D01*
X128270000Y-119985907D01*
X127903592Y-120058790D01*
X126986579Y-119141777D01*
X127027440Y-118940000D01*
X127027440Y-117440000D01*
X126983162Y-117204683D01*
X126844090Y-116988559D01*
X126631890Y-116843569D01*
X126618803Y-116840919D01*
X126620231Y-116840000D01*
X128025907Y-116840000D01*
X128138946Y-117408285D01*
X128460853Y-117890054D01*
X128942622Y-118211961D01*
X129510907Y-118325000D01*
X129569093Y-118325000D01*
X130137378Y-118211961D01*
X130619147Y-117890054D01*
X130941054Y-117408285D01*
X131054093Y-116840000D01*
X130941054Y-116271715D01*
X130619147Y-115789946D01*
X130278447Y-115562298D01*
X130421358Y-115495183D01*
X130811645Y-115066924D01*
X130981476Y-114656890D01*
X130860155Y-114427000D01*
X129667000Y-114427000D01*
X129667000Y-114447000D01*
X129413000Y-114447000D01*
X129413000Y-114427000D01*
X128219845Y-114427000D01*
X128098524Y-114656890D01*
X128268355Y-115066924D01*
X128658642Y-115495183D01*
X128801553Y-115562298D01*
X128460853Y-115789946D01*
X128138946Y-116271715D01*
X128025907Y-116840000D01*
X126620231Y-116840000D01*
X126831441Y-116704090D01*
X126976431Y-116491890D01*
X127027440Y-116240000D01*
X127027440Y-114740000D01*
X126983162Y-114504683D01*
X126844090Y-114288559D01*
X126827547Y-114277255D01*
X127314802Y-113790000D01*
X128161940Y-113790000D01*
X128098524Y-113943110D01*
X128219845Y-114173000D01*
X129413000Y-114173000D01*
X129413000Y-114153000D01*
X129667000Y-114153000D01*
X129667000Y-114173000D01*
X130860155Y-114173000D01*
X130981476Y-113943110D01*
X130909835Y-113770141D01*
X131100839Y-113732148D01*
X131347401Y-113567401D01*
X132590000Y-112324802D01*
X132590000Y-114113258D01*
X132590000Y-114113258D01*
G37*
X132590000Y-114113258D02*
X132464683Y-114136838D01*
X132248559Y-114275910D01*
X132103569Y-114488110D01*
X132052560Y-114740000D01*
X132052560Y-116240000D01*
X132096838Y-116475317D01*
X132235910Y-116691441D01*
X132448110Y-116836431D01*
X132461197Y-116839081D01*
X132248559Y-116975910D01*
X132103569Y-117188110D01*
X132052560Y-117440000D01*
X132052560Y-118940000D01*
X132090985Y-119144213D01*
X131176408Y-120058790D01*
X130810000Y-119985907D01*
X130241715Y-120098946D01*
X129759946Y-120420853D01*
X129540000Y-120750026D01*
X129320054Y-120420853D01*
X128838285Y-120098946D01*
X128270000Y-119985907D01*
X127903592Y-120058790D01*
X126986579Y-119141777D01*
X127027440Y-118940000D01*
X127027440Y-117440000D01*
X126983162Y-117204683D01*
X126844090Y-116988559D01*
X126631890Y-116843569D01*
X126618803Y-116840919D01*
X126620231Y-116840000D01*
X128025907Y-116840000D01*
X128138946Y-117408285D01*
X128460853Y-117890054D01*
X128942622Y-118211961D01*
X129510907Y-118325000D01*
X129569093Y-118325000D01*
X130137378Y-118211961D01*
X130619147Y-117890054D01*
X130941054Y-117408285D01*
X131054093Y-116840000D01*
X130941054Y-116271715D01*
X130619147Y-115789946D01*
X130278447Y-115562298D01*
X130421358Y-115495183D01*
X130811645Y-115066924D01*
X130981476Y-114656890D01*
X130860155Y-114427000D01*
X129667000Y-114427000D01*
X129667000Y-114447000D01*
X129413000Y-114447000D01*
X129413000Y-114427000D01*
X128219845Y-114427000D01*
X128098524Y-114656890D01*
X128268355Y-115066924D01*
X128658642Y-115495183D01*
X128801553Y-115562298D01*
X128460853Y-115789946D01*
X128138946Y-116271715D01*
X128025907Y-116840000D01*
X126620231Y-116840000D01*
X126831441Y-116704090D01*
X126976431Y-116491890D01*
X127027440Y-116240000D01*
X127027440Y-114740000D01*
X126983162Y-114504683D01*
X126844090Y-114288559D01*
X126827547Y-114277255D01*
X127314802Y-113790000D01*
X128161940Y-113790000D01*
X128098524Y-113943110D01*
X128219845Y-114173000D01*
X129413000Y-114173000D01*
X129413000Y-114153000D01*
X129667000Y-114153000D01*
X129667000Y-114173000D01*
X130860155Y-114173000D01*
X130981476Y-113943110D01*
X130909835Y-113770141D01*
X131100839Y-113732148D01*
X131347401Y-113567401D01*
X132590000Y-112324802D01*
X132590000Y-114113258D01*
M02*
