G04 #@! TF.FileFunction,Soldermask,Bot*
%FSLAX46Y46*%
G04 Gerber Fmt 4.6, Leading zero omitted, Abs format (unit mm)*
G04 Created by KiCad (PCBNEW 4.0.5) date 08/12/17 16:39:25*
%MOMM*%
%LPD*%
G01*
G04 APERTURE LIST*
%ADD10C,0.100000*%
%ADD11R,2.100000X2.100000*%
%ADD12O,2.100000X2.100000*%
%ADD13O,2.398980X2.398980*%
%ADD14R,2.398980X2.398980*%
%ADD15C,1.400000*%
%ADD16C,3.100000*%
G04 APERTURE END LIST*
D10*
D11*
X120650000Y-88900000D03*
D12*
X120650000Y-91440000D03*
D13*
X116840000Y-115570000D03*
D14*
X114300000Y-115570000D03*
D15*
X114300000Y-118110000D03*
X116840000Y-118110000D03*
D11*
X144780000Y-116840000D03*
D12*
X144780000Y-114300000D03*
X144780000Y-111760000D03*
X144780000Y-109220000D03*
X144780000Y-106680000D03*
X144780000Y-104140000D03*
X144780000Y-101600000D03*
X144780000Y-99060000D03*
X144780000Y-96520000D03*
X144780000Y-93980000D03*
X144780000Y-91440000D03*
X144780000Y-88900000D03*
X144780000Y-86360000D03*
X144780000Y-83820000D03*
X144780000Y-81280000D03*
D11*
X129540000Y-81280000D03*
D12*
X129540000Y-83820000D03*
X129540000Y-86360000D03*
X129540000Y-88900000D03*
X129540000Y-91440000D03*
X129540000Y-93980000D03*
X129540000Y-96520000D03*
X129540000Y-99060000D03*
X129540000Y-101600000D03*
X129540000Y-104140000D03*
X129540000Y-106680000D03*
X129540000Y-109220000D03*
X129540000Y-111760000D03*
X129540000Y-114300000D03*
X129540000Y-116840000D03*
D11*
X138430000Y-121500000D03*
D12*
X135890000Y-121500000D03*
X133350000Y-121500000D03*
X130810000Y-121500000D03*
X128270000Y-121500000D03*
X125730000Y-121500000D03*
X123190000Y-121500000D03*
X120650000Y-121500000D03*
D11*
X115570000Y-88900000D03*
D12*
X115570000Y-91440000D03*
D11*
X109220000Y-109220000D03*
D12*
X109220000Y-106680000D03*
X109220000Y-104140000D03*
X109220000Y-101600000D03*
X109220000Y-99060000D03*
D11*
X121650000Y-104140000D03*
D16*
X109640000Y-81700000D03*
X149440000Y-81700000D03*
X149440000Y-121500000D03*
X109640000Y-121500000D03*
D11*
X135890000Y-81700000D03*
D12*
X138430000Y-81700000D03*
D11*
X120650000Y-81700000D03*
D12*
X123190000Y-81700000D03*
X125730000Y-81700000D03*
D11*
X110490000Y-88900000D03*
D12*
X110490000Y-91440000D03*
M02*
