M48
INCH,TZ
T10C0.016
T11C0.039
T12C0.043
T13C0.106
%
T10
X049500Y-38000
X052000Y-37500
X055000Y-42500
X055000Y-43000
X055500Y-42000
X056000Y-41500
T11
X043000Y-39000
X043000Y-40000
X043000Y-41000
X043000Y-42000
X043000Y-43000
X043500Y-35000
X043500Y-36000
X045500Y-35000
X045500Y-36000
X047500Y-32165
X047500Y-35000
X047500Y-36000
X047500Y-47835
X047894Y-41000
X048500Y-32165
X048500Y-47835
X049500Y-32165
X049500Y-47835
X050500Y-47835
X051000Y-32000
X051000Y-33000
X051000Y-34000
X051000Y-35000
X051000Y-36000
X051000Y-37000
X051000Y-38000
X051000Y-39000
X051000Y-40000
X051000Y-41000
X051000Y-42000
X051000Y-43000
X051000Y-44000
X051000Y-45000
X051000Y-46000
X051500Y-47835
X052500Y-47835
X053500Y-32165
X053500Y-47835
X054500Y-32165
X054500Y-47835
X057000Y-32000
X057000Y-33000
X057000Y-34000
X057000Y-35000
X057000Y-36000
X057000Y-37000
X057000Y-38000
X057000Y-39000
X057000Y-40000
X057000Y-41000
X057000Y-42000
X057000Y-43000
X057000Y-44000
X057000Y-45000
X057000Y-46000
X045000Y-46500
X046000Y-46500
T12
X045000Y-45500
X046000Y-45500
T13
X043165Y-32165
X043165Y-47835
X058835Y-32165
X058835Y-47835
M30

